name rise43.5482peak65.4966fall89.1036.mot
datacolumns 19
datarows 18
range 22.92491100000000 22.95324000000000
endheader
time	ground_force1_vx	ground_force1_vy	ground_force1_vz	ground_force1_px	ground_force1_py	ground_force1_pz	ground_force2_vx	ground_force2_vy	ground_force2_vz	ground_force2_px	ground_force2_py	ground_force2_pz	ground_torque1_x	ground_torque1_y	ground_torque1_z	ground_torque2_x	ground_torque2_y	ground_torque2_z	
22.92491100000000	8.89170100000000	691.34855700000003	42.38345300000000	0.17093100000000	0.00000000000000	0.12622300000000	0.00000000000000	0.00000000000000	0.00000000000000	0.00000000000000	0.00000000000000	0.00000000000000	0.00000000000000	10.92690000000000	0.00000000000000	0.00000000000000	0.00000000000000	0.00000000000000	
22.92657300000000	8.63182300000000	691.33166600000004	42.42957000000000	0.17026700000000	0.00000000000000	0.12619000000000	0.00000000000000	0.00000000000000	0.00000000000000	0.00000000000000	0.00000000000000	0.00000000000000	0.00000000000000	10.95747100000000	0.00000000000000	0.00000000000000	0.00000000000000	0.00000000000000	
22.92824800000000	8.36016800000000	691.35331399999995	42.48594100000000	0.16958000000000	0.00000000000000	0.12615900000000	0.00000000000000	0.00000000000000	0.00000000000000	0.00000000000000	0.00000000000000	0.00000000000000	0.00000000000000	10.99397200000000	0.00000000000000	0.00000000000000	0.00000000000000	0.00000000000000	
22.92991400000000	8.07599000000000	691.41290600000002	42.55213900000000	0.16886700000000	0.00000000000000	0.12613000000000	0.00000000000000	0.00000000000000	0.00000000000000	0.00000000000000	0.00000000000000	0.00000000000000	0.00000000000000	11.03637900000000	0.00000000000000	0.00000000000000	0.00000000000000	0.00000000000000	
22.93157400000000	7.77858700000000	691.50995000000000	42.62773800000000	0.16812900000000	0.00000000000000	0.12610400000000	0.00000000000000	0.00000000000000	0.00000000000000	0.00000000000000	0.00000000000000	0.00000000000000	0.00000000000000	11.08466600000000	0.00000000000000	0.00000000000000	0.00000000000000	0.00000000000000	
22.93324100000000	7.46730300000000	691.64405999999997	42.71230500000000	0.16736400000000	0.00000000000000	0.12608000000000	0.00000000000000	0.00000000000000	0.00000000000000	0.00000000000000	0.00000000000000	0.00000000000000	0.00000000000000	11.13880100000000	0.00000000000000	0.00000000000000	0.00000000000000	0.00000000000000	
22.93490900000000	7.14153200000000	691.81495900000004	42.80541300000000	0.16657300000000	0.00000000000000	0.12605900000000	0.00000000000000	0.00000000000000	0.00000000000000	0.00000000000000	0.00000000000000	0.00000000000000	0.00000000000000	11.19875100000000	0.00000000000000	0.00000000000000	0.00000000000000	0.00000000000000	
22.93657900000000	6.80071700000000	692.02247699999998	42.90663200000000	0.16575500000000	0.00000000000000	0.12603900000000	0.00000000000000	0.00000000000000	0.00000000000000	0.00000000000000	0.00000000000000	0.00000000000000	0.00000000000000	11.26447900000000	0.00000000000000	0.00000000000000	0.00000000000000	0.00000000000000	
22.93824500000000	6.44435600000000	692.26655200000005	43.01554100000000	0.16491000000000	0.00000000000000	0.12602200000000	0.00000000000000	0.00000000000000	0.00000000000000	0.00000000000000	0.00000000000000	0.00000000000000	0.00000000000000	11.33594300000000	0.00000000000000	0.00000000000000	0.00000000000000	0.00000000000000	
22.93990500000000	6.07200100000000	692.54723000000001	43.13172200000000	0.16403800000000	0.00000000000000	0.12600600000000	0.00000000000000	0.00000000000000	0.00000000000000	0.00000000000000	0.00000000000000	0.00000000000000	0.00000000000000	11.41309900000000	0.00000000000000	0.00000000000000	0.00000000000000	0.00000000000000	
22.94157900000000	5.68326100000000	692.86466199999995	43.25476700000000	0.16313900000000	0.00000000000000	0.12599200000000	0.00000000000000	0.00000000000000	0.00000000000000	0.00000000000000	0.00000000000000	0.00000000000000	0.00000000000000	11.49590000000000	0.00000000000000	0.00000000000000	0.00000000000000	0.00000000000000	
22.94323700000000	5.27780200000000	693.21910200000002	43.38427600000000	0.16221400000000	0.00000000000000	0.12598000000000	0.00000000000000	0.00000000000000	0.00000000000000	0.00000000000000	0.00000000000000	0.00000000000000	0.00000000000000	11.58429400000000	0.00000000000000	0.00000000000000	0.00000000000000	0.00000000000000	
22.94491100000000	4.85534900000000	693.61090300000001	43.51986200000000	0.16126400000000	0.00000000000000	0.12597000000000	0.00000000000000	0.00000000000000	0.00000000000000	0.00000000000000	0.00000000000000	0.00000000000000	0.00000000000000	11.67822600000000	0.00000000000000	0.00000000000000	0.00000000000000	0.00000000000000	
22.94657900000000	4.41568700000000	694.04051500000003	43.66115000000000	0.16028800000000	0.00000000000000	0.12596100000000	0.00000000000000	0.00000000000000	0.00000000000000	0.00000000000000	0.00000000000000	0.00000000000000	0.00000000000000	11.77763700000000	0.00000000000000	0.00000000000000	0.00000000000000	0.00000000000000	
22.94824400000000	3.95866000000000	694.50847499999998	43.80778000000000	0.15928800000000	0.00000000000000	0.12595400000000	0.00000000000000	0.00000000000000	0.00000000000000	0.00000000000000	0.00000000000000	0.00000000000000	0.00000000000000	11.88246300000000	0.00000000000000	0.00000000000000	0.00000000000000	0.00000000000000	
22.94991700000000	3.48417200000000	695.01540599999998	43.95940800000000	0.15826500000000	0.00000000000000	0.12594700000000	0.00000000000000	0.00000000000000	0.00000000000000	0.00000000000000	0.00000000000000	0.00000000000000	0.00000000000000	11.99263600000000	0.00000000000000	0.00000000000000	0.00000000000000	0.00000000000000	
22.95157900000000	2.99219000000000	695.56200899999999	44.11570700000000	0.15722000000000	0.00000000000000	0.12594200000000	0.00000000000000	0.00000000000000	0.00000000000000	0.00000000000000	0.00000000000000	0.00000000000000	0.00000000000000	12.10808500000000	0.00000000000000	0.00000000000000	0.00000000000000	0.00000000000000	
22.95324000000000	2.48273700000000	696.14905299999998	44.27636800000000	0.15615400000000	0.00000000000000	0.12593700000000	0.00000000000000	0.00000000000000	0.00000000000000	0.00000000000000	0.00000000000000	0.00000000000000	0.00000000000000	12.22873300000000	0.00000000000000	0.00000000000000	0.00000000000000	0.00000000000000	
